<svg id="Layer_1" data-name="Layer 1" xmlns="http://www.w3.org/2000/svg" width="25.97mm" height="27.09mm" viewBox="0 0 73.62 76.78"><title>Building- Understanding</title><path d="M43.29,40.46a6.32,6.32,0,0,1-1.17,3" fill="none" stroke="#adcb81" stroke-miterlimit="10"/><path d="M42.05,36a6.38,6.38,0,0,1,1.23,3" fill="none" stroke="#adcb81" stroke-miterlimit="10"/><path d="M37,56.18l0,6.31a3.36,3.36,0,0,1-3.79,3.36A26.05,26.05,0,0,1,10.81,42.94a3.36,3.36,0,0,0-3.34-3h0a3.39,3.39,0,0,0-3.37,3.76A32.94,32.94,0,0,0,57.74,65.4a3.38,3.38,0,0,0,.22-5l-.08-.09a3.34,3.34,0,0,1-.32-4.4,26,26,0,0,0,5.26-13,3.37,3.37,0,0,1,3.35-3h0a3.38,3.38,0,0,0,3.36-3.76,32.93,32.93,0,0,0-29.72-29,3.36,3.36,0,0,1-3-3.36V0" fill="none" stroke="#adcb81" stroke-miterlimit="10"/><line x1="50.5" y1="39.88" x2="54.46" y2="39.88" fill="#fff" stroke="#adcb81" stroke-miterlimit="10"/><line x1="19.62" y1="39.88" x2="23.59" y2="39.88" fill="#fff" stroke="#adcb81" stroke-miterlimit="10"/><line x1="46.51" y1="49.34" x2="49.36" y2="52.19" fill="#fff" stroke="#adcb81" stroke-miterlimit="10"/><line x1="24.73" y1="27.56" x2="27.49" y2="30.32" fill="#fff" stroke="#adcb81" stroke-miterlimit="10"/><line x1="37.04" y1="22.46" x2="37.04" y2="26.33" fill="#fff" stroke="#adcb81" stroke-miterlimit="10"/><line x1="27.58" y1="49.34" x2="24.73" y2="52.19" fill="#fff" stroke="#adcb81" stroke-miterlimit="10"/><line x1="49.36" y1="27.56" x2="46.61" y2="30.31" fill="#fff" stroke="#adcb81" stroke-miterlimit="10"/><path d="M33.19,51.6V51a4.9,4.9,0,0,0-2-3.84,9.44,9.44,0,0,1,6.09-16.87,9.54,9.54,0,0,1,9.16,9.61,9.42,9.42,0,0,1-3.77,7.37,4.77,4.77,0,0,0-1.82,3.82v.51" fill="none" stroke="#adcb81" stroke-miterlimit="10"/><path d="M39.12,54.07a2.11,2.11,0,1,1-4.21,0" fill="none" stroke="#596c74" stroke-miterlimit="10"/><path d="M39.77,3.78a36.32,36.32,0,1,1-5.9,0" fill="none" stroke="#2d903c" stroke-miterlimit="10"/><path d="M34.07,62.6A22.78,22.78,0,1,1,40,62.55" fill="none" stroke="#2d903c" stroke-miterlimit="10"/><line x1="36.81" y1="10.42" x2="36.81" y2="17.18" fill="none" stroke="#2d903c" stroke-miterlimit="10"/><line x1="46.28" y1="60.71" x2="48.96" y2="66.92" fill="none" stroke="#2d903c" stroke-miterlimit="10"/><line x1="63.98" y1="51.6" x2="70.18" y2="54.32" fill="none" stroke="#2d903c" stroke-miterlimit="10"/><line x1="16.5" y1="18.51" x2="11.82" y2="13.63" fill="none" stroke="#2d903c" stroke-miterlimit="10"/><path d="M55.93,62.51A29.56,29.56,0,0,1,7.41,42.94" fill="none" stroke="#2d903c" stroke-miterlimit="10"/><path d="M66.22,42.94A29.5,29.5,0,0,1,60,58.28" fill="none" stroke="#2d903c" stroke-miterlimit="10"/><path d="M7.41,37A29.55,29.55,0,0,1,66.21,37V37" fill="none" stroke="#2d903c" stroke-miterlimit="10"/><rect x="33.19" y="51.6" width="7.7" height="2.49" fill="none" stroke="#596c74" stroke-miterlimit="10"/></svg>