<svg id="Layer_1" data-name="Layer 1" xmlns="http://www.w3.org/2000/svg" width="26mm" height="26mm" viewBox="0 0 73.7 73.69"><title>Charities</title><path d="M36.06,32.75c-.61,7.15-6.08,7.59-7.18,6.48-.76-.76.26-2.21.64-3.54.65-2.3,1.31-5.33,2.79-6.82,2.57-2.59,7-1.8,18.93.82l16.61-5" fill="none" stroke="#596c74" stroke-miterlimit="10"/><path d="M23,47.87a2.55,2.55,0,0,1-3.62-.15,2.59,2.59,0,0,1,.15-3.64c1-1,2.22-.49,3.18.55S24.07,46.91,23,47.87Z" fill="none" stroke="#596c74" stroke-miterlimit="10"/><path d="M26.76,51.42a2.57,2.57,0,0,1-3.48-3.79c1-1,2.23-.5,3.19.55S27.8,50.45,26.76,51.42Z" fill="none" stroke="#596c74" stroke-miterlimit="10"/><path d="M31.29,54a2.57,2.57,0,1,1-4.18-3c.82-1.16,2.08-1,3.23-.13S32.11,52.84,31.29,54Z" fill="none" stroke="#596c74" stroke-miterlimit="10"/><path d="M35.44,55.62a2.2,2.2,0,0,1-2.91,1.13,2.22,2.22,0,0,1-1.12-2.92c.49-1.12,1.59-1.16,2.7-.66S35.94,54.51,35.44,55.62Z" fill="none" stroke="#596c74" stroke-miterlimit="10"/><line x1="19.13" y1="44.32" x2="3.59" y2="39.56" fill="none" stroke="#596c74" stroke-miterlimit="10"/><path d="M55.15,39c-5.64,8.1-15.69-2.27-15.79-2.32-.87-.42-3.76-1.55-3.76-1.55" fill="none" stroke="#596c74" stroke-miterlimit="10"/><path d="M42.43,44c7.93,4.34,8.3,4.62,9.77,4.62a2.84,2.84,0,0,0,2.09-.83,3.44,3.44,0,0,0,1-2.25" fill="none" stroke="#596c74" stroke-miterlimit="10"/><path d="M37.69,46.44c8.14,4.46,8.5,4.74,10,4.74a3.19,3.19,0,0,0,3.07-2.79" fill="none" stroke="#596c74" stroke-miterlimit="10"/><path d="M32.73,49c8.13,4.44,8.49,4.73,10,4.73a3.21,3.21,0,0,0,3.07-2.79" fill="none" stroke="#596c74" stroke-miterlimit="10"/><path d="M37.4,27.28c-3.58-.57-4.7-.4-5.35-.24L21.71,29.71l-15.92-5" fill="none" stroke="#596c74" stroke-miterlimit="10"/><path d="M46,41.28c.94.64,2.24,1.51,3,2,8,4.64,9.41,1.22,14.69-.92,2.42-1,4.76-1.91,6.33-2.52" fill="none" stroke="#596c74" stroke-miterlimit="10"/><path d="M35.6,55.1a4.57,4.57,0,0,0,2.29.6,3.07,3.07,0,0,0,3-2.4" fill="none" stroke="#596c74" stroke-miterlimit="10"/><circle cx="36.85" cy="36.85" r="36.35" fill="none" stroke="#2d903c" stroke-miterlimit="10"/><line x1="36.85" y1="19.05" x2="36.85" y2="11.84" fill="none" stroke="#adcb81" stroke-miterlimit="10"/><line x1="33.25" y1="20.12" x2="28.18" y2="15.02" fill="none" stroke="#adcb81" stroke-miterlimit="10"/><line x1="40.45" y1="20.12" x2="45.52" y2="15.02" fill="none" stroke="#adcb81" stroke-miterlimit="10"/></svg>