<svg id="Layer_1" data-name="Layer 1" xmlns="http://www.w3.org/2000/svg" width="26mm" height="26mm" viewBox="0 0 73.7 73.7"><title>Evaluating &amp;amp; Selecting</title><path d="M49.52,18.64c-1.76-.39-4.89.41-5.12-1.71a1.68,1.68,0,0,1,.41-1.24" fill="none" stroke="#adcb81" stroke-miterlimit="10"/><path d="M56.36,34.56c-.1.11-.18.23-.27.34a2.46,2.46,0,0,1-1,.89,1.38,1.38,0,0,1-1.24-.2c-.94-.59-1.53-2.28-1.73-3.62a15,15,0,0,1-.05-3,15.06,15.06,0,0,0-.27-4.56" fill="none" stroke="#adcb81" stroke-miterlimit="10"/><path d="M33.14,14.78c.6.1.94.79,1.39,1.83a4.42,4.42,0,0,0,.95,1.61c2.46,2.47-1.94.24-4,2.9-.84,1.09-1,3-2.17,3.82-1.51,1-4.08,0-4.33,1.54-.45,2.8,2.33,2.62,2.95,3.23.25.26.23,1,.79,1.58s1.27.42,2.23.22c1.19-.25,1.27.61,2.36.91.5.15,1,.35,1.53.54a16.37,16.37,0,0,0,1.83.6l1.14.15.38,0,.59.1a2,2,0,0,1,.81.34,6.37,6.37,0,0,1,.79.85,6.13,6.13,0,0,0,1.53,1.38,10.9,10.9,0,0,0,1,.5,5.61,5.61,0,0,1,1.54.84,1.27,1.27,0,0,1,.34.94,6.37,6.37,0,0,1-2.07,3.72,6.5,6.5,0,0,1-.7.44,2.91,2.91,0,0,0-1.58,1.79l-.05.15a3.8,3.8,0,0,1-.57,1.67l-.42.43a.93.93,0,0,1-.15.13,5,5,0,0,1-1.23.64A4.7,4.7,0,0,0,35.91,49a3.5,3.5,0,0,0-.34,2.67c-.8-.84-.85-2.32-.75-4.36a11.54,11.54,0,0,0-.24-3.71,5.25,5.25,0,0,0-1.73-2.38,4.18,4.18,0,0,1-1.14-1.34,5.47,5.47,0,0,1-.35-2.28,8.38,8.38,0,0,0-.15-1.93,3.23,3.23,0,0,0-2.27-2.48,6.08,6.08,0,0,1-1-.49,7.89,7.89,0,0,1-1.28-1,8.88,8.88,0,0,0-1-.85A6.35,6.35,0,0,0,23.6,30c-.1,0-.25,0-.4-.1-1-.3-1.28-.94-1.68-2.38-.05-.16-.09-.33-.14-.49" fill="none" stroke="#adcb81" stroke-linecap="round" stroke-linejoin="round"/><line x1="54.07" y1="46.82" x2="57.78" y2="50.53" fill="none" stroke="#596c74" stroke-miterlimit="10"/><line x1="21.11" y1="13.87" x2="25.36" y2="18.11" fill="none" stroke="#596c74" stroke-miterlimit="10"/><polyline points="44.1 70.53 43.08 65.5 30.62 65.5 29.6 70.53" fill="none" stroke="#596c74" stroke-miterlimit="10"/><line x1="41.02" y1="66.78" x2="41.47" y2="70.85" fill="none" stroke="#596c74" stroke-miterlimit="10"/><line x1="35.8" y1="60.98" x2="35.8" y2="65.5" fill="none" stroke="#596c74" stroke-miterlimit="10"/><line x1="37.9" y1="60.98" x2="37.9" y2="65.5" fill="none" stroke="#596c74" stroke-miterlimit="10"/><path d="M60.15,46.76A26.19,26.19,0,1,1,23.7,12.15" fill="none" stroke="#596c74" stroke-miterlimit="10"/><circle cx="36.85" cy="36.85" r="36.35" fill="none" stroke="#2d903c" stroke-miterlimit="10"/><path d="M16.8,35.82a19,19,0,0,1,3,1.68,12.56,12.56,0,0,1,0,2.51c0,.43-.06.8-.06,1.05,0,.94.93,1.61,1.75,2.2l.48.36a12.2,12.2,0,0,1-.61,4.19" fill="none" stroke="#adcb81" stroke-miterlimit="10"/><path d="M22,21.13a20.55,20.55,0,0,1,15.33-6.85h.26" fill="none" stroke="#2d903c" stroke-miterlimit="10"/><path d="M57.74,37.36A20.58,20.58,0,1,1,19.23,25" fill="none" stroke="#2d903c" stroke-miterlimit="10"/><path d="M50.41,44.13a2.28,2.28,0,0,0-4.55.15c0,.64,0,.46,2.28,5.11C50.52,44.55,50.45,44.83,50.41,44.13Z" fill="none" stroke="#2d903c" stroke-miterlimit="10"/><path d="M60.16,32.4a2.28,2.28,0,0,0-4.55.14c0,.64,0,.46,2.28,5.11C60.27,32.81,60.2,33.09,60.16,32.4Z" fill="none" stroke="#2d903c" stroke-miterlimit="10"/><path d="M40.69,10.73a2.28,2.28,0,0,0-4.55.15c0,.64,0,.46,2.28,5.11C40.8,11.15,40.73,11.43,40.69,10.73Z" fill="none" stroke="#2d903c" stroke-miterlimit="10"/><path d="M23.07,23a2.27,2.27,0,0,0-4.54.14c0,.64,0,.46,2.27,5.11C23.19,23.36,23.12,23.64,23.07,23Z" fill="none" stroke="#2d903c" stroke-miterlimit="10"/><path d="M31.71,45a2.27,2.27,0,0,0-4.54.14c0,.64,0,.46,2.27,5.11C31.83,45.43,31.76,45.71,31.71,45Z" fill="none" stroke="#2d903c" stroke-miterlimit="10"/><path d="M45.55,26a2.28,2.28,0,0,0-4.55.14c0,.65,0,.47,2.28,5.12C45.66,26.37,45.59,26.65,45.55,26Z" fill="none" stroke="#2d903c" stroke-miterlimit="10"/><path d="M53.09,21.65a20.47,20.47,0,0,1,4.3,8.67" fill="none" stroke="#2d903c" stroke-miterlimit="10"/><path d="M39.22,14.37a20.43,20.43,0,0,1,10.44,4" fill="none" stroke="#2d903c" stroke-miterlimit="10"/><path d="M53.8,19.56a2.28,2.28,0,0,0-4.55.15c0,.64,0,.46,2.28,5.11C53.92,20,53.84,20.26,53.8,19.56Z" fill="none" stroke="#2d903c" stroke-miterlimit="10"/><path d="M28.32,43.18a2.15,2.15,0,0,0,0-.44,2.28,2.28,0,0,0-4.55.14c0,.65,0,.47,2.28,5.11.48-1,.86-1.75,1.17-2.36" fill="none" stroke="#2d903c" stroke-miterlimit="10"/></svg>