<svg id="Layer_1" data-name="Layer 1" xmlns="http://www.w3.org/2000/svg" width="26mm" height="26mm" viewBox="0 0 73.7 73.7"><title>Invested In NZ</title><path d="M40.49,56.91a12.41,12.41,0,0,1-1.61.19" fill="none" stroke="#adcb81" stroke-miterlimit="10"/><path d="M47.61,50.23A8.41,8.41,0,0,1,43,56.12" fill="none" stroke="#adcb81" stroke-miterlimit="10"/><path d="M31.06,28.51a3.81,3.81,0,0,1-3.81,3.81,3.06,3.06,0,0,1-3.05-3.05" fill="none" stroke="#2d903c" stroke-miterlimit="10"/><path d="M42.59,28.51a3.81,3.81,0,0,0,3.81,3.81,3,3,0,0,0,3.05-3.05" fill="none" stroke="#2d903c" stroke-miterlimit="10"/><path d="M37.52,44A3.66,3.66,0,0,1,40.86,48a2.93,2.93,0,0,1-3.16,2.68" fill="none" stroke="#adcb81" stroke-miterlimit="10"/><path d="M47.9,39.85a13.27,13.27,0,0,1,3,9.53,11.41,11.41,0,0,1-12.3,10.41,9.85,9.85,0,0,1-9-10.63,8.43,8.43,0,0,1,1.54-4.23" fill="none" stroke="#adcb81" stroke-miterlimit="10"/><path d="M41.55,23a5.27,5.27,0,0,0-1.06,2" fill="none" stroke="#2d903c" stroke-miterlimit="10"/><path d="M32.16,23a5.39,5.39,0,0,1,1.05,2" fill="none" stroke="#2d903c" stroke-miterlimit="10"/><path d="M37.52,44a4.36,4.36,0,0,0-4.72,4,5.46,5.46,0,0,0,5,5.9,6.81,6.81,0,0,0,7.37-6.23,8.54,8.54,0,0,0-7.79-9.23,10.68,10.68,0,0,0-11.53,9.75,14.1,14.1,0,0,0,9.1,14.22" fill="none" stroke="#adcb81" stroke-miterlimit="10"/><path d="M26.16,39.85C21,45.58,22.88,53.06,23,53.54" fill="none" stroke="#adcb81" stroke-miterlimit="10"/><path d="M31.06,28.51A4.55,4.55,0,0,0,26.51,24a5.69,5.69,0,0,0-5.69,5.69,7.12,7.12,0,0,0,7.11,7.11,8.9,8.9,0,0,0,8.9-8.89A11.11,11.11,0,0,0,25.71,16.76,13.89,13.89,0,0,0,11.82,30.65C11.15,38.3,16.74,47.09,23,53.54c.11.09,9,9.22,13.67,9.22H37c5.74,0,26.1-17.82,24.84-32.11A13.89,13.89,0,0,0,47.94,16.76,11.1,11.1,0,0,0,36.83,27.87a8.89,8.89,0,0,0,8.89,8.89,7.12,7.12,0,0,0,7.11-7.11A5.69,5.69,0,0,0,47.14,24a4.55,4.55,0,0,0-4.55,4.55" fill="none" stroke="#2d903c" stroke-miterlimit="10"/><path d="M47.29,43.63a13.46,13.46,0,0,1,.56,3.84" fill="none" stroke="#adcb81" stroke-miterlimit="10"/><path d="M32.39,43.33A7,7,0,0,1,35,41.7" fill="none" stroke="#adcb81" stroke-miterlimit="10"/><path d="M16.55,38.27a15.76,15.76,0,0,1-1.13-2.72" fill="none" stroke="#adcb81" stroke-miterlimit="10"/><path d="M17.94,40.59a22.22,22.22,0,0,0,4.72,5l.35.27" fill="none" stroke="#adcb81" stroke-miterlimit="10"/><path d="M57.11,38.27a16.55,16.55,0,0,0,1.12-2.72" fill="none" stroke="#adcb81" stroke-miterlimit="10"/><path d="M55.71,40.59a22.22,22.22,0,0,1-4.72,5l-.31.19" fill="none" stroke="#adcb81" stroke-miterlimit="10"/><path d="M.5,36.85a36.36,36.36,0,1,1,10.65,25.7A36.21,36.21,0,0,1,.5,36.85Z" fill="none" stroke="#2d903c" stroke-miterlimit="10"/><path d="M.5,36.85a36.36,36.36,0,1,1,10.65,25.7A36.21,36.21,0,0,1,.5,36.85Z" fill="none" stroke="#2d903c" stroke-miterlimit="10"/><path d="M43.16,21.72a7.81,7.81,0,0,1,4-1.08,9,9,0,0,1,9,9A10.44,10.44,0,0,1,45.72,40.08a12.14,12.14,0,0,1-8.89-3.85,12.18,12.18,0,0,1-8.9,3.85A10.44,10.44,0,0,1,17.5,29.65a9,9,0,0,1,9-9,7.81,7.81,0,0,1,4,1.08" fill="none" stroke="#2d903c" stroke-miterlimit="10"/></svg>