<svg id="Layer_1" data-name="Layer 1" xmlns="http://www.w3.org/2000/svg" width="26mm" height="26mm" viewBox="0 0 73.7 73.69"><title>Iwi</title><rect x="21.86" y="40.14" width="7.98" height="13.68" fill="none" stroke="#adcb81" stroke-miterlimit="10"/><line x1="39.97" y1="20.51" x2="57.71" y2="34.31" fill="none" stroke="#adcb81" stroke-miterlimit="10" stroke-dasharray="1.23"/><line x1="36.85" y1="16.97" x2="36.85" y2="50.87" fill="none" stroke="#2d903c" stroke-miterlimit="10"/><line x1="12.87" y1="36.75" x2="7.66" y2="40.8" fill="none" stroke="#adcb81" stroke-miterlimit="10" stroke-dasharray="1.23"/><line x1="66.02" y1="40.8" x2="60.94" y2="36.84" fill="none" stroke="#adcb81" stroke-miterlimit="10" stroke-dasharray="1.23"/><line x1="33.74" y1="20.51" x2="16" y2="34.31" fill="none" stroke="#adcb81" stroke-miterlimit="10" stroke-dasharray="1.23"/><line x1="32.74" y1="53.82" x2="18.91" y2="53.82" fill="#fff" stroke="#2d903c" stroke-miterlimit="10"/><circle cx="36.85" cy="36.85" r="36.35" fill="none" stroke="#2d903c" stroke-miterlimit="10"/><line x1="57.7" y1="31.56" x2="39.94" y2="17.74" fill="none" stroke="#596c74" stroke-miterlimit="10"/><polyline points="60.89 39.57 66.02 43.57 66.02 38.03 60.83 33.99" fill="none" stroke="#596c74" stroke-miterlimit="10"/><line x1="38.74" y1="22.34" x2="57.7" y2="37.09" fill="none" stroke="#596c74" stroke-miterlimit="10"/><line x1="16" y1="37.08" x2="34.94" y2="22.35" fill="none" stroke="#596c74" stroke-miterlimit="10"/><polyline points="12.87 33.98 7.66 38.03 7.66 43.57 12.87 39.52" fill="none" stroke="#596c74" stroke-miterlimit="10"/><line x1="33.79" y1="17.71" x2="16" y2="31.54" fill="none" stroke="#596c74" stroke-miterlimit="10"/><path d="M57.7,30V50.63h3.13V30a1.57,1.57,0,0,0-1.57-1.58h0A1.57,1.57,0,0,0,57.7,30Z" fill="none" stroke="#2d903c" stroke-miterlimit="10"/><path d="M12.87,30V50.63H16V30a1.57,1.57,0,0,0-1.56-1.58h0A1.57,1.57,0,0,0,12.87,30Z" fill="none" stroke="#2d903c" stroke-miterlimit="10"/><path d="M39.34,21.82l-1.43,1.24a1.65,1.65,0,0,1-2.18,0l-1.38-1.23a1.66,1.66,0,0,1-.56-1.24V14.19h6.12v6.37A1.68,1.68,0,0,1,39.34,21.82Z" fill="none" stroke="#2d903c" stroke-miterlimit="10"/><rect x="43.87" y="40.14" width="7.98" height="5.92" fill="none" stroke="#adcb81" stroke-miterlimit="10"/><line x1="42.31" y1="40.14" x2="53.41" y2="40.14" fill="none" stroke="#adcb81" stroke-miterlimit="10"/><line x1="20.29" y1="40.14" x2="31.39" y2="40.14" fill="none" stroke="#adcb81" stroke-miterlimit="10"/><path d="M40.89,61.51A2.82,2.82,0,0,1,42,63.56" fill="none" stroke="#adcb81" stroke-miterlimit="10"/><path d="M43.66,61.51a2.83,2.83,0,0,0-1.06,2.05" fill="none" stroke="#adcb81" stroke-miterlimit="10"/><path d="M30.27,66.07a2.82,2.82,0,0,1,1.07,2.05" fill="none" stroke="#adcb81" stroke-miterlimit="10"/><path d="M33.05,66.07A2.82,2.82,0,0,0,32,68.12" fill="none" stroke="#adcb81" stroke-miterlimit="10"/><path d="M19.65,61.51a2.82,2.82,0,0,1,1.07,2.05" fill="none" stroke="#adcb81" stroke-miterlimit="10"/><path d="M22.43,61.51a2.82,2.82,0,0,0-1.07,2.05" fill="none" stroke="#adcb81" stroke-miterlimit="10"/><path d="M51.51,61.51a2.83,2.83,0,0,1,1.06,2.05" fill="none" stroke="#adcb81" stroke-miterlimit="10"/><path d="M54.28,61.51a2.82,2.82,0,0,0-1.07,2.05" fill="none" stroke="#adcb81" stroke-miterlimit="10"/><line x1="32.74" y1="53.82" x2="65.56" y2="53.82" fill="none" stroke="#adcb81" stroke-miterlimit="10"/><line x1="8.14" y1="53.82" x2="18.91" y2="53.82" fill="none" stroke="#adcb81" stroke-miterlimit="10"/><polyline points="63.41 57.01 32.74 57.01 32.74 50.63 67.22 50.63" fill="none" stroke="#adcb81" stroke-miterlimit="10"/><polyline points="6.47 50.63 18.91 50.63 18.91 57.01 10.29 57.01" fill="none" stroke="#adcb81" stroke-miterlimit="10"/></svg>