<svg id="Layer_1" data-name="Layer 1" xmlns="http://www.w3.org/2000/svg" width="26mm" height="26mm" viewBox="0 0 73.7 73.69"><title>No Interests Wholesale</title><path d="M23.14,27a1.88,1.88,0,0,1-.74,1.6" fill="none" stroke="#adcb81" stroke-miterlimit="10"/><path d="M26.57,27a1.88,1.88,0,0,0,.73,1.6" fill="none" stroke="#adcb81" stroke-miterlimit="10"/><path d="M24.82,22.59A2.65,2.65,0,0,0,27,21.39c3.14,1.82.66,6.2-2.15,6.2-2.4,0-4.1-2.92-3.48-4.6a1.54,1.54,0,0,1,2.22-.74,2.4,2.4,0,0,0,1.26.34" fill="none" stroke="#adcb81" stroke-miterlimit="10"/><path d="M27,21.39c3.14,1.82.66,6.2-2.15,6.2" fill="none" stroke="#adcb81" stroke-miterlimit="10"/><path d="M29.6,29.18a6.93,6.93,0,0,0-2.26-.55,2.63,2.63,0,0,1-2.47,1.24,2.63,2.63,0,0,1-2.47-1.24c-5.07.53-4.82,3.65-4.2,11.67a2.89,2.89,0,0,0,.92,1.9,8.49,8.49,0,0,0,6,2c2.84,0,4.38-.87,5.2-1.66" fill="none" stroke="#adcb81" stroke-miterlimit="10"/><path d="M21.07,34.21c0,3.82-.56,5.13-.56,7.48,0,.16,0,1,0,1.51" fill="none" stroke="#adcb81" stroke-miterlimit="10"/><path d="M50.56,27a1.88,1.88,0,0,0,.74,1.6" fill="none" stroke="#596c74" stroke-miterlimit="10"/><path d="M47.13,27a1.88,1.88,0,0,1-.73,1.6" fill="none" stroke="#596c74" stroke-miterlimit="10"/><path d="M44,29.24a6.87,6.87,0,0,1,2.37-.61,3.08,3.08,0,0,0,4.94,0c5.08.53,4.82,3.65,4.2,11.67a2.89,2.89,0,0,1-.92,1.9,8.49,8.49,0,0,1-6,2c-3,0-4.5-.94-5.3-1.76" fill="none" stroke="#596c74" stroke-miterlimit="10"/><path d="M52.63,34.21c0,3.82.56,5.13.56,7.48,0,.16,0,1,0,1.5" fill="none" stroke="#596c74" stroke-miterlimit="10"/><path d="M52.15,25.13a4.27,4.27,0,0,0-3.06-7.23h-.52a4.27,4.27,0,0,0-3.06,7.23" fill="none" stroke="#596c74" stroke-miterlimit="10"/><path d="M48.8,22.59A2.67,2.67,0,0,0,51,21.39c3.14,1.82.66,6.2-2.15,6.2-2.4,0-4.1-2.92-3.48-4.6a1.53,1.53,0,0,1,2.22-.74,2.4,2.4,0,0,0,1.26.34" fill="none" stroke="#596c74" stroke-miterlimit="10"/><path d="M51,21.39c3.14,1.82.66,6.2-2.15,6.2" fill="none" stroke="#596c74" stroke-miterlimit="10"/><path d="M39.18,18.68c3.46,2,.73,6.82-2.36,6.82" fill="none" stroke="#596c74" stroke-miterlimit="10"/><path d="M43.17,55C46,53.52,49.75,51.63,52,50.64a13.47,13.47,0,0,1,4.9-1.35c1.61,0,2.35.71,2.35,1.37s-.28.67-1.39,1.56" fill="none" stroke="#596c74" stroke-miterlimit="10"/><path d="M32.66,59.52c7.81-2.69,13.83,3.76,16.13,1.47.9-.9-.11-5.61-11.89-7.7-2.33-3.25-6.27-6-14-4.89-1.14.17-2.48.45-3.8.74L10.64,50.8" fill="none" stroke="#596c74" stroke-miterlimit="10"/><line x1="21.41" y1="58.72" x2="15.05" y2="59.35" fill="none" stroke="#596c74" stroke-miterlimit="10"/><path d="M.5,36.85a36.34,36.34,0,1,1,10.65,25.7A36.21,36.21,0,0,1,.5,36.85Z" fill="none" stroke="#2d903c" stroke-miterlimit="10"/><path d="M28.79,28.8c1.78-3.36,2.4-11-3.78-11h-.54C18,17.81,19,26.06,20.9,29.19" fill="none" stroke="#adcb81" stroke-miterlimit="10"/><path d="M34.9,24.91a2.09,2.09,0,0,1-.82,1.78" fill="none" stroke="#2d903c" stroke-miterlimit="10"/><path d="M38.75,24.91a2.09,2.09,0,0,0,.82,1.78" fill="none" stroke="#2d903c" stroke-miterlimit="10"/><path d="M40.53,22.8c.7-.65,3.71-6.09-2.35-7.47-.29-.07.33-.91.18-1.06a.18.18,0,0,0-.2,0c-.44.59-3.13,0-4.93,1.77a4.82,4.82,0,0,0-.09,6.74" fill="none" stroke="#2d903c" stroke-miterlimit="10"/><path d="M36.8,20a2.91,2.91,0,0,0,2.39-1.32c3.46,2,.73,6.82-2.36,6.82-2.65,0-4.52-3.22-3.83-5.06a1.67,1.67,0,0,1,2.44-.81,2.72,2.72,0,0,0,1.39.37" fill="none" stroke="#2d903c" stroke-miterlimit="10"/><path d="M34,26.69a2.93,2.93,0,0,0,2.75,1.38h0a2.9,2.9,0,0,0,2.74-1.38c7.28.76,4.9,8.41,3.78,15.76h0s-.88,2.95-6.13,2.95-6.83-2.95-6.83-2.95c-1.12-7.34-3.5-15,3.77-15.76a2.93,2.93,0,0,0,2.75,1.38h0a2.9,2.9,0,0,0,2.74-1.38" fill="none" stroke="#2d903c" stroke-miterlimit="10"/><path d="M41.45,33.18c0,4.25-.36,5.7-.36,8.32,0,.26,0,2.13-.05,2.88" fill="none" stroke="#2d903c" stroke-miterlimit="10"/><path d="M32.15,33.18c0,4.25.36,5.7.36,8.32,0,.26,0,2.13.05,2.88" fill="none" stroke="#2d903c" stroke-miterlimit="10"/><line x1="36.8" y1="28.07" x2="36.8" y2="45.4" fill="none" stroke="#2d903c" stroke-miterlimit="10"/><polyline points="33.09 26.69 33.68 30.06 36.83 28.07" fill="none" stroke="#2d903c" stroke-linejoin="bevel"/><polyline points="40.54 26.69 39.95 30.06 36.8 28.07" fill="none" stroke="#2d903c" stroke-linejoin="bevel"/><path d="M21,28.63l.16.94a1.65,1.65,0,0,0,2.51,1.11L24.76,30" fill="none" stroke="#adcb81" stroke-miterlimit="10"/><path d="M28.47,28.63l-.16.94a1.65,1.65,0,0,1-2.51,1.11L24.74,30" fill="none" stroke="#adcb81" stroke-miterlimit="10"/><line x1="48.83" y1="44.31" x2="48.83" y2="29.87" fill="none" stroke="#596c74" stroke-miterlimit="10"/><line x1="24.74" y1="44.31" x2="24.74" y2="29.87" fill="none" stroke="#adcb81" stroke-miterlimit="10"/><path d="M49,59.73c10.1-5.48,10.28-5.46,10.28-6.33s-1-1.3-2.34-1.3c-2.59,0-6.41,2-10.89,4.27" fill="none" stroke="#596c74" stroke-miterlimit="10"/><path d="M19.13,57.47l12.26,6.77a9.69,9.69,0,0,0,9.34,0l5.4-3" fill="none" stroke="#596c74" stroke-miterlimit="10"/><path d="M38.37,53.57c4-2,7.1-3.75,9.33-3.75,1.27,0,1.85.56,1.85,1.08a1.72,1.72,0,0,1-.87,1.31" fill="none" stroke="#596c74" stroke-miterlimit="10"/></svg>