<svg id="Layer_1" data-name="Layer 1" xmlns="http://www.w3.org/2000/svg" width="26mm" height="26mm" viewBox="0 0 73.7 73.7"><title>Optimising- Performance</title><rect x="63.98" y="34.7" width="4.3" height="4.3" fill="none" stroke="#adcb81" stroke-miterlimit="10"/><path d="M40.6,7.82a29.31,29.31,0,0,1,25.34,25.8" fill="none" stroke="#adcb81" stroke-miterlimit="10" stroke-dasharray="1.23"/><circle cx="36.85" cy="7.58" r="2.15" fill="none" stroke="#adcb81" stroke-miterlimit="10"/><path d="M59,55.3l-4.71-4.72a22.22,22.22,0,1,0-3.73,3.73L55.31,59" fill="none" stroke="#596c74" stroke-miterlimit="10"/><path d="M33,65.86A29.3,29.3,0,0,1,7.76,40.1" fill="none" stroke="#adcb81" stroke-miterlimit="10" stroke-dasharray="1.23"/><rect x="5.42" y="34.7" width="4.3" height="4.3" transform="translate(15.14 73.7) rotate(180)" fill="none" stroke="#adcb81" stroke-miterlimit="10"/><circle cx="36.85" cy="66.11" r="2.15" fill="none" stroke="#adcb81" stroke-miterlimit="10"/><polyline points="33.99 54.44 33.99 44.88 28.25 44.88 28.25 52.42" fill="none" stroke="#2d903c" stroke-miterlimit="10"/><polyline points="39.73 54.44 39.73 40.1 33.99 40.1 33.99 54.44" fill="none" stroke="#2d903c" stroke-miterlimit="10"/><polyline points="45.47 52.63 45.47 35.32 39.73 35.32 39.73 54.44" fill="none" stroke="#2d903c" stroke-miterlimit="10"/><line x1="28.25" y1="48.03" x2="33.99" y2="48.03" fill="none" stroke="#2d903c" stroke-miterlimit="10"/><line x1="33.99" y1="49.98" x2="39.73" y2="49.98" fill="none" stroke="#2d903c" stroke-miterlimit="10"/><line x1="39.73" y1="42.89" x2="45.47" y2="42.89" fill="none" stroke="#2d903c" stroke-miterlimit="10"/><polyline points="27.41 37.68 32.05 33.02 34.2 34.35 38.83 29.69 41.02 31.05 44.9 27.16" fill="none" stroke="#2d903c" stroke-miterlimit="10"/><polyline points="44.9 30.09 44.9 27.16 41.97 27.16" fill="none" stroke="#2d903c" stroke-miterlimit="10"/><circle cx="36.86" cy="36.85" r="17.87" fill="none" stroke="#2d903c" stroke-miterlimit="10"/><path d="M.5,36.85a36.36,36.36,0,1,1,10.65,25.7A36.21,36.21,0,0,1,.5,36.85Z" fill="none" stroke="#2d903c" stroke-miterlimit="10"/><polyline points="57.34 64.41 53.63 60.7 60.72 53.59 64.44 57.31" fill="none" stroke="#596c74" stroke-miterlimit="10"/></svg>