<svg id="Layer_1" data-name="Layer 1" xmlns="http://www.w3.org/2000/svg" width="26mm" height="26mm" viewBox="0 0 73.7 73.69"><title>Private-Investors</title><circle cx="36.85" cy="36.85" r="36.35" fill="none" stroke="#2d903c" stroke-miterlimit="10"/><path d="M40,44.19a3.42,3.42,0,0,0,1.33,2.89" fill="none" stroke="#596c74" stroke-miterlimit="10"/><path d="M33.79,44.19a3.39,3.39,0,0,1-1.33,2.89" fill="none" stroke="#596c74" stroke-miterlimit="10"/><path d="M42.84,40.75c4.28-4,2-13.09-5.52-13.09h-.94c-7.52,0-9.8,9.14-5.51,13.09" fill="none" stroke="#596c74" stroke-miterlimit="10"/><path d="M36.79,36.15A4.8,4.8,0,0,0,40.72,34c5.66,3.29,1.19,11.22-3.87,11.22-4.34,0-7.39-5.28-6.27-8.31a2.74,2.74,0,0,1,4-1.34,4.44,4.44,0,0,0,2.28.61" fill="none" stroke="#596c74" stroke-miterlimit="10"/><path d="M40.72,34c5.66,3.29,1.19,11.22-3.87,11.22" fill="none" stroke="#596c74" stroke-miterlimit="10"/><path d="M24,67.62c-.27-2.83-.75-7.23-.75-9.84,0-7,2.65-10,9.16-10.7,0,0,1.06,2.24,4.45,2.24s4.45-2.24,4.45-2.24" fill="none" stroke="#596c74" stroke-miterlimit="10"/><path d="M41.3,47.08c6.51.68,9.16,3.75,9.16,10.7,0,3.24-.36,5.31-.75,9.84" fill="none" stroke="#596c74" stroke-miterlimit="10"/><path d="M29.86,57.42c0,5.9-.73,8.56-1,11.82" fill="none" stroke="#596c74" stroke-miterlimit="10"/><path d="M43.84,57.42c0,5.9.73,8.56,1,11.82" fill="none" stroke="#596c74" stroke-miterlimit="10"/><polygon points="36.85 16.02 63.58 29.77 63.58 26.25 36.85 12.5 10.12 26.25 10.12 29.77 36.85 16.02" fill="none" stroke="#adcb81" stroke-miterlimit="10"/><line x1="13.63" y1="27.96" x2="13.63" y2="47.18" fill="none" stroke="#adcb81" stroke-miterlimit="10"/><line x1="60.07" y1="27.96" x2="60.07" y2="47.18" fill="none" stroke="#adcb81" stroke-miterlimit="10"/><polyline points="17.98 22.2 17.98 18.29 24.13 18.29 24.13 19.04" fill="none" stroke="#adcb81" stroke-miterlimit="10"/><rect x="17.07" y="15.27" width="7.97" height="3.02" fill="none" stroke="#adcb81" stroke-miterlimit="10"/><line x1="21.05" y1="47.18" x2="5.16" y2="47.18" fill="none" stroke="#adcb81" stroke-miterlimit="10"/><line x1="68.57" y1="47.18" x2="52.58" y2="47.18" fill="none" stroke="#adcb81" stroke-miterlimit="10"/></svg>