<svg id="Layer_1" data-name="Layer 1" xmlns="http://www.w3.org/2000/svg" width="26mm" height="26mm" viewBox="0 0 73.7 73.7"><title>Safe Hands</title><polyline points="19.8 61.57 19.8 56.74 23.08 56.74 23.08 61.57" fill="none" stroke="#596c74" stroke-miterlimit="10"/><polyline points="49.12 61.57 49.12 56.73 52.39 56.73 52.39 61.57" fill="none" stroke="#596c74" stroke-miterlimit="10"/><line x1="13" y1="61.57" x2="60.68" y2="61.57" fill="#fff" stroke="#596c74" stroke-miterlimit="10"/><path d="M.5,36.85a36.36,36.36,0,1,1,10.65,25.7A36.21,36.21,0,0,1,.5,36.85Z" fill="none" stroke="#2d903c" stroke-miterlimit="10"/><circle cx="36.85" cy="36.85" r="10.02" fill="none" stroke="#adcb81" stroke-miterlimit="10"/><circle cx="36.85" cy="36.85" r="5.11" fill="none" stroke="#2d903c" stroke-miterlimit="10"/><path d="M36.85,34.16a2.69,2.69,0,0,1,2.69,2.69" fill="none" stroke="#2d903c" stroke-miterlimit="10"/><polyline points="52.52 39.24 50.34 37.06 52.52 34.89" fill="none" stroke="#596c74" stroke-miterlimit="10"/><polyline points="21.1 25.79 21.1 21.39 52.6 21.39 52.6 52.31 21.1 52.31 21.1 47.91" fill="none" stroke="#adcb81" stroke-miterlimit="10"/><line x1="21.1" y1="43.31" x2="21.1" y2="30.39" fill="none" stroke="#adcb81" stroke-miterlimit="10"/><path d="M19.63,42.65h0a2.53,2.53,0,0,1,2.53,2.53v3.38a0,0,0,0,1,0,0H17.1a0,0,0,0,1,0,0V45.18A2.53,2.53,0,0,1,19.63,42.65Z" transform="translate(65.24 25.98) rotate(90)" fill="none" stroke="#596c74" stroke-miterlimit="10"/><path d="M19.63,25.14h0a2.53,2.53,0,0,1,2.53,2.53V31a0,0,0,0,1,0,0H17.1a0,0,0,0,1,0,0V27.66A2.53,2.53,0,0,1,19.63,25.14Z" transform="translate(47.72 8.46) rotate(90)" fill="none" stroke="#596c74" stroke-miterlimit="10"/><line x1="36.85" y1="44.2" x2="36.85" y2="47.17" fill="none" stroke="#adcb81" stroke-miterlimit="10"/><line x1="36.85" y1="26.53" x2="36.85" y2="29.5" fill="none" stroke="#adcb81" stroke-miterlimit="10"/><line x1="29.5" y1="36.85" x2="26.53" y2="36.85" fill="none" stroke="#adcb81" stroke-miterlimit="10"/><line x1="47.17" y1="36.85" x2="44.2" y2="36.85" fill="none" stroke="#adcb81" stroke-miterlimit="10"/><line x1="31.65" y1="42.05" x2="29.55" y2="44.15" fill="none" stroke="#adcb81" stroke-miterlimit="10"/><line x1="44.15" y1="29.55" x2="42.05" y2="31.65" fill="none" stroke="#adcb81" stroke-miterlimit="10"/><line x1="31.65" y1="31.65" x2="29.55" y2="29.55" fill="none" stroke="#adcb81" stroke-miterlimit="10"/><line x1="44.15" y1="44.15" x2="42.05" y2="42.05" fill="none" stroke="#adcb81" stroke-miterlimit="10"/><rect x="16.67" y="16.96" width="40.35" height="39.77" fill="none" stroke="#2d903c" stroke-miterlimit="10"/></svg>