<svg id="Layer_1" data-name="Layer 1" xmlns="http://www.w3.org/2000/svg" width="25.93mm" height="25.91mm" viewBox="0 0 73.49 73.44"><title>Talking Risk</title><path d="M29.43,72.18A36.21,36.21,0,1,0,1.31,29.38C-1.5,43,3.7,51.71,6.51,56.64c1.13,2,3.14,4.27-.41,7.82A13.31,13.31,0,0,1,1.26,67.4c4,4.29,11.41,5.13,15.77-.31A37.79,37.79,0,0,0,29.43,72.18Z" fill="none" stroke="#2d903c" stroke-miterlimit="10"/><path d="M28.69,38.86c-.17.91,1.93,1,1.87,1.83-.11,1.49-6.44.06-6.56,1.68-.05.69,1.09,1.73,6.3,2,1.41.08,2.83.23,4.23.45a12.25,12.25,0,0,1,4.55,1.4,2.94,2.94,0,0,1,1.47,2.4c0,1.82-2.2,2.49-1.94,5.29,0,.61.44,1.94,2.65,4.25" fill="none" stroke="#596c74" stroke-miterlimit="10"/><path d="M30.78,37.38a1.76,1.76,0,0,1-2,1.46h0a1.75,1.75,0,0,1-1.46-2" fill="none" stroke="#596c74" stroke-miterlimit="10"/><path d="M44.81,39.54a1.76,1.76,0,0,1-2,1.47h0a1.76,1.76,0,0,1-1.46-2" fill="none" stroke="#596c74" stroke-miterlimit="10"/><rect x="34.3" y="33.96" width="4.58" height="1.62" transform="matrix(0.99, 0.15, -0.15, 0.99, 5.74, -5.18)" fill="none" stroke="#2d903c" stroke-miterlimit="10"/><line x1="45.86" y1="32.73" x2="28.37" y2="30.03" fill="none" stroke="#2d903c" stroke-miterlimit="10"/><rect x="28.35" y="32.99" width="3.83" height="1.64" fill="none" stroke="#adcb81" stroke-linecap="square" stroke-linejoin="round" transform="translate(5.52 -4.22) rotate(8.78)"/><rect x="41" y="34.94" width="3.83" height="1.64" fill="none" stroke="#adcb81" stroke-linecap="square" stroke-linejoin="round" transform="translate(79.87 77.66) rotate(-171.22)"/><polygon points="26.9 32.46 30.57 26.53 44.82 28.73 46.53 35.49 45.88 39.71 26.25 36.68 26.9 32.46" fill="none" stroke="#2d903c" stroke-miterlimit="10"/><path d="M42.89,41c-.13.59-.79.71-2.6.58-2.93-.22-7.43-1.15-7.55.49s3.16,2.09,8.56,2.42c10.18.62,9.91,2,10.44,3.26" fill="none" stroke="#596c74" stroke-miterlimit="10"/><polygon points="36.74 10.44 62.91 36.6 51.74 47.76 36.74 62.76 10.58 36.6 36.74 10.44" fill="none" stroke="#adcb81" stroke-miterlimit="10"/><rect x="15.23" y="15.14" width="43.03" height="43.03" transform="translate(36.68 -15.25) rotate(45)" fill="none" stroke="#2d903c" stroke-miterlimit="10"/></svg>