<svg id="Layer_1" data-name="Layer 1" xmlns="http://www.w3.org/2000/svg" width="26mm" height="26mm" viewBox="0 0 73.7 73.69"><title>Wholesale-Investors</title><path d="M18,50.15l.18,1a1.89,1.89,0,0,0,2.87,1.28l1.22-.77" fill="none" stroke="#2d903c" stroke-miterlimit="10"/><path d="M26.53,50.15l-.18,1a1.89,1.89,0,0,1-2.87,1.28l-1.21-.77" fill="none" stroke="#2d903c" stroke-miterlimit="10"/><path d="M20.18,48A2.29,2.29,0,0,1,19.29,50" fill="none" stroke="#2d903c" stroke-miterlimit="10"/><path d="M24.38,48A2.29,2.29,0,0,0,25.27,50" fill="none" stroke="#2d903c" stroke-miterlimit="10"/><path d="M22.22,42.61a3.2,3.2,0,0,0,2.63-1.46c3.8,2.21.8,7.54-2.6,7.54-2.91,0-5-3.56-4.21-5.59a1.85,1.85,0,0,1,2.69-.9,3,3,0,0,0,1.52.41" fill="none" stroke="#2d903c" stroke-miterlimit="10"/><path d="M24.85,41.15c3.8,2.21.8,7.54-2.6,7.54" fill="none" stroke="#2d903c" stroke-miterlimit="10"/><path d="M27,50.26c2.2-4,3-13.47-4.53-13.47h-.65c-7.59,0-6.72,9.55-4.49,13.55" fill="none" stroke="#2d903c" stroke-miterlimit="10"/><line x1="22.28" y1="51.46" x2="22.28" y2="66.82" fill="none" stroke="#2d903c" stroke-miterlimit="10"/><path d="M28.07,50.66A8.34,8.34,0,0,0,25.26,50a3.16,3.16,0,0,1-3,1.51,3.17,3.17,0,0,1-3-1.51c-5.45.57-5.82,3.63-5.31,11.12" fill="none" stroke="#2d903c" stroke-miterlimit="10"/><path d="M53.2,48a2.3,2.3,0,0,0,.9,1.95" fill="none" stroke="#2d903c" stroke-miterlimit="10"/><path d="M49,48a2.3,2.3,0,0,1-.9,1.95" fill="none" stroke="#2d903c" stroke-miterlimit="10"/><path d="M55.14,45.64C58,43,56.49,36.82,51.42,36.82h-.64c-5.07,0-6.61,6.16-3.71,8.82" fill="none" stroke="#2d903c" stroke-miterlimit="10"/><path d="M51.06,42.55a3.23,3.23,0,0,0,2.65-1.47c3.82,2.21.8,7.56-2.61,7.56-2.92,0-5-3.56-4.23-5.6a1.85,1.85,0,0,1,2.69-.91,3,3,0,0,0,1.54.42" fill="none" stroke="#2d903c" stroke-miterlimit="10"/><line x1="51.08" y1="51.46" x2="51.08" y2="66.98" fill="none" stroke="#2d903c" stroke-miterlimit="10"/><path d="M45.28,50.66A8.47,8.47,0,0,1,48.09,50a3.19,3.19,0,0,0,3,1.51,3.17,3.17,0,0,0,3-1.51c5.53.58,5.83,3.72,5.29,11.46" fill="none" stroke="#2d903c" stroke-miterlimit="10"/><polyline points="9.82 53.41 9.82 21.64 24.32 21.64 24.32 31.61" fill="none" stroke="#adcb81" stroke-miterlimit="10"/><polyline points="48.62 31.61 48.62 12.83 24.32 12.83 24.32 32.74" fill="none" stroke="#adcb81" stroke-miterlimit="10"/><polyline points="48.62 32.74 48.62 21.64 63.12 21.64 63.12 53.41" fill="none" stroke="#adcb81" stroke-miterlimit="10"/><rect x="40.37" y="18.72" width="2.4" height="2.41" fill="none" stroke="#adcb81" stroke-miterlimit="10"/><rect x="30.18" y="18.72" width="2.4" height="2.41" fill="none" stroke="#adcb81" stroke-miterlimit="10"/><rect x="40.37" y="24.85" width="2.4" height="2.41" fill="none" stroke="#adcb81" stroke-miterlimit="10"/><rect x="30.18" y="24.85" width="2.4" height="2.41" fill="none" stroke="#adcb81" stroke-miterlimit="10"/><rect x="15.87" y="27.53" width="2.4" height="2.41" fill="none" stroke="#adcb81" stroke-miterlimit="10"/><rect x="54.67" y="27.53" width="2.4" height="2.41" fill="none" stroke="#adcb81" stroke-miterlimit="10"/><path d="M39.48,46.65a3.08,3.08,0,0,0,1.2,2.62" fill="none" stroke="#596c74" stroke-miterlimit="10"/><path d="M33.9,46.65a3.08,3.08,0,0,1-1.2,2.62" fill="none" stroke="#596c74" stroke-miterlimit="10"/><line x1="36.65" y1="51.33" x2="36.65" y2="70.17" fill="none" stroke="#596c74" stroke-miterlimit="10"/><polyline points="32.16 49.33 32.92 53.72 36.68 51.33" fill="none" stroke="#596c74" stroke-linejoin="bevel"/><polyline points="41.16 49.33 40.41 53.72 36.65 51.33" fill="none" stroke="#596c74" stroke-linejoin="bevel"/><path d="M42.13,43.55c1-1,5.51-9.09-3.49-11.15-.43-.1.49-1.36.26-1.59a.28.28,0,0,0-.29,0c-.66.89-4.66-.05-7.34,2.64S28.4,41,31.14,43.55" fill="none" stroke="#596c74" stroke-miterlimit="10"/><path d="M36.58,39.38a4.35,4.35,0,0,0,3.56-2c5.14,3,1.08,10.18-3.51,10.18-3.94,0-6.71-4.8-5.69-7.54a2.48,2.48,0,0,1,3.62-1.22,4.11,4.11,0,0,0,2.07.56" fill="none" stroke="#596c74" stroke-miterlimit="10"/><path d="M40.14,37.4c5.14,3,1.08,10.18-3.51,10.18" fill="none" stroke="#596c74" stroke-miterlimit="10"/><circle cx="36.85" cy="36.85" r="36.35" fill="none" stroke="#2d903c" stroke-miterlimit="10"/><path d="M26,68.36c-.24-2.5-.73-6.89-.73-9.43,0-6.28,1.48-9,7.36-9.66a4.27,4.27,0,0,0,4,2c3.07,0,4-2,4-2" fill="none" stroke="#596c74" stroke-miterlimit="10"/><path d="M40.68,49.27c5.89.62,7.37,3.38,7.37,9.66,0,3.09-.36,5-.73,9.56" fill="none" stroke="#596c74" stroke-miterlimit="10"/><path d="M43,58.41c0,5.56.73,7.87.88,11" fill="none" stroke="#596c74" stroke-miterlimit="10"/><path d="M30.36,58.41c0,5.51-.72,7.83-.88,10.94" fill="none" stroke="#596c74" stroke-miterlimit="10"/></svg>